<svg xmlns="http://www.w3.org/2000/svg" width="207" height="80" viewBox="0 0 207 80" fill="none"><path d="M51.0923 20.7207L49.9805 28.7419L57.8428 25.9226L61.6946 23.1826L51.0923 20.7207Z" fill="#FAA41A"></path><path d="M41.4425 65.8703C28.696 46.7703 27.0282 23.1039 41.6807 23.1039C45.5722 23.1039 48.7092 25.407 49.9799 28.7426C50.6549 27.2336 51.0917 25.6056 51.2109 23.8981C51.8065 16.2343 46.0487 10 38.3849 10C20.913 10 16.0289 44.9437 23.9706 65.8703H41.4425Z" fill="#383839"></path><path d="M50.0592 28.5049C50.0195 28.5843 49.9798 28.6637 49.9401 28.7431C48.7091 25.4076 45.5324 23.1045 41.6807 23.1045C27.0281 23.1045 28.7356 46.7312 41.4424 65.8709H23.9706L14.5596 70.0006H43.825C52.2035 51.536 55.1817 39.0277 50.0592 28.5049Z" fill="#D5D7D8"></path><path d="M45.6509 65.8691L39.2578 69.9989H49.9792C49.9792 69.9989 49.3836 66.5839 45.6509 65.8691Z" fill="#383839"></path><path d="M58.7154 41.4103C59.1125 41.2118 59.2713 40.775 59.1125 40.3779V40.3382C58.9536 39.9014 58.4374 39.6632 58.0006 39.8617L48.6294 44.19C48.272 44.3488 47.8352 44.19 47.6763 43.7929L47.3587 42.9987C47.1601 42.4428 47.4381 41.8471 47.9543 41.6486L57.3256 38.0351C57.7624 37.8763 57.9609 37.3998 57.8021 36.963C57.6432 36.5262 57.1667 36.3276 56.7299 36.4865L47.3587 40.1C46.8027 40.2985 46.2071 40.0205 46.0086 39.5043L45.81 38.9881C45.6512 38.6307 45.8497 38.1939 46.2468 38.0748L56.0946 35.0172C56.5314 34.8584 56.8094 34.3819 56.6108 33.9451V33.9054C56.452 33.5083 56.0152 33.27 55.6181 33.3892C45.5321 36.2879 45.4526 36.3276 44.857 36.5262C42.0377 37.5983 40.8861 39.7426 40.2508 41.4501C39.9331 42.3236 39.2184 42.9987 38.3448 43.3164C21.9053 48.7962 15.0754 50.464 11.3428 52.4097C8.72201 53.7598 10.2707 57.7704 13.1297 57.0159C17.2594 55.9438 23.454 52.6082 39.2581 45.6592C40.092 45.3018 41.0847 45.3415 41.9186 45.7783C43.5069 46.6122 45.81 47.4461 48.6294 46.3342C49.1853 46.0563 49.3838 45.9769 58.7154 41.4103Z" fill="black"></path><path d="M41.4425 65.8703C28.696 46.7703 27.0282 23.1039 41.6807 23.1039C45.5722 23.1039 48.7092 25.407 49.9799 28.7426C50.6549 27.2336 51.0917 25.6056 51.2109 23.8981C51.8065 16.2343 46.0487 10 38.3849 10C20.913 10 16.0289 44.9437 23.9706 65.8703H41.4425Z" fill="#383839"></path><path d="M45.2544 17.5844C46.128 17.5844 46.8824 17.8624 47.5575 18.3389C47.2001 16.9491 45.8897 15.877 44.3808 15.877C42.5542 15.877 41.085 17.3462 41.085 19.1728C41.085 19.7287 41.2438 20.2449 41.482 20.7214C41.7997 18.9345 43.3881 17.5844 45.2544 17.5844Z" fill="#D5D7D8"></path><path d="M85.8769 41.0948C85.4401 40.3006 84.8047 39.6652 84.0106 39.2284C83.1767 38.7916 82.2237 38.5931 81.1118 38.5931C79.2058 38.5931 77.6572 39.2284 76.5056 40.4594C75.354 41.7301 74.7584 43.3979 74.7584 45.5024C74.7584 47.7261 75.354 49.4733 76.585 50.744C77.7763 52.0147 79.444 52.6103 81.5883 52.6103C83.0576 52.6103 84.2488 52.2529 85.2812 51.4985C86.274 50.744 87.0284 49.7116 87.4652 48.3218H79.9603V43.9538H92.8259V49.4336C92.3891 50.9028 91.6347 52.2926 90.6022 53.5633C89.5698 54.834 88.2197 55.8664 86.6313 56.6209C85.0033 57.4151 83.2164 57.8122 81.1912 57.8122C78.8087 57.8122 76.6644 57.2959 74.7981 56.2238C72.9318 55.1914 71.4626 53.7221 70.4301 51.8558C69.3977 49.9895 68.8418 47.8452 68.8418 45.4627C68.8418 43.0802 69.358 40.9359 70.4301 39.0696C71.4626 37.2033 72.9318 35.7341 74.7981 34.7016C76.6644 33.6692 78.8087 33.1133 81.1912 33.1133C84.09 33.1133 86.5519 33.828 88.5374 35.2178C90.5228 36.6077 91.8332 38.5534 92.5082 41.055H85.8769V41.0948Z" fill="black"></path><path d="M99.7748 56.738C98.2659 55.9438 97.0746 54.7923 96.201 53.2833C95.3274 51.7744 94.8906 50.0272 94.8906 48.0418C94.8906 46.0563 95.3274 44.3092 96.201 42.8002C97.0746 41.2913 98.2659 40.1397 99.7748 39.3456C101.284 38.5514 102.991 38.1543 104.897 38.1543C106.803 38.1543 108.471 38.5514 110.02 39.3456C111.529 40.1397 112.72 41.2913 113.593 42.8002C114.467 44.3092 114.904 46.0563 114.904 48.0418C114.904 50.0272 114.467 51.7744 113.593 53.2833C112.72 54.7923 111.489 55.9438 109.98 56.738C108.431 57.5322 106.724 57.9293 104.858 57.9293C102.991 57.969 101.284 57.5719 99.7748 56.738ZM107.756 51.6156C108.55 50.7817 108.948 49.5904 108.948 48.0418C108.948 46.4931 108.55 45.3019 107.796 44.468C107.042 43.6341 106.089 43.237 104.937 43.237C103.785 43.237 102.832 43.6341 102.078 44.468C101.323 45.3019 100.926 46.4931 100.926 48.0418C100.926 49.5904 101.284 50.7817 102.038 51.6156C102.793 52.4495 103.706 52.8466 104.858 52.8466C106.009 52.8466 106.962 52.4495 107.756 51.6156Z" fill="black"></path><path d="M139.801 57.6918H133.884L123.997 42.7215V57.6918H118.08V33.4297H123.997L133.884 48.4793V33.4297H139.801V57.6918Z" fill="black"></path><path d="M144.526 35.4945C143.851 34.8988 143.533 34.1444 143.533 33.2311C143.533 32.3178 143.851 31.5633 144.526 30.928C145.201 30.3323 146.035 30.0146 147.067 30.0146C148.1 30.0146 148.934 30.3323 149.569 30.928C150.244 31.5236 150.562 32.3178 150.562 33.2311C150.562 34.1444 150.244 34.8988 149.569 35.4945C148.894 36.0901 148.06 36.4078 147.067 36.4078C146.035 36.4078 145.161 36.0901 144.526 35.4945ZM150.006 38.3932V57.652H144.089V38.3932H150.006Z" fill="black"></path><path d="M171.449 40.3779C172.799 41.8471 173.474 43.8325 173.474 46.4136V57.6909H167.597V47.2078C167.597 45.9371 167.28 44.9047 166.605 44.1899C165.93 43.4752 165.056 43.1178 163.904 43.1178C162.793 43.1178 161.879 43.4752 161.204 44.1899C160.529 44.9047 160.212 45.8974 160.212 47.2078V57.6909H154.295V38.3924H160.212V40.9735C160.807 40.1396 161.601 39.4646 162.634 38.9484C163.666 38.4718 164.778 38.1939 166.049 38.1939C168.272 38.1939 170.099 38.9484 171.449 40.3779ZM162.475 31.6816C162.991 31.6816 163.428 31.7611 163.785 31.9199C164.182 32.0787 164.619 32.2773 165.175 32.5949C165.572 32.8332 165.93 32.992 166.168 33.1112C166.406 33.2303 166.684 33.27 166.962 33.27C167.796 33.27 168.312 32.7538 168.431 31.7214H171.489C170.933 35.1363 169.345 36.8438 166.724 36.8438C166.208 36.8438 165.771 36.7644 165.413 36.6055C165.016 36.4467 164.58 36.2482 164.024 35.9305C163.626 35.6922 163.269 35.5334 163.031 35.4143C162.793 35.2951 162.515 35.2554 162.237 35.2554C161.403 35.2554 160.887 35.7716 160.728 36.8041H157.71C158.266 33.3891 159.854 31.6816 162.475 31.6816Z" fill="black"></path><path d="M177.524 42.8002C178.279 41.2913 179.311 40.1397 180.582 39.3456C181.853 38.5514 183.322 38.1543 184.91 38.1543C186.26 38.1543 187.451 38.4323 188.484 38.9882C189.516 39.5441 190.311 40.2589 190.866 41.1722V38.4323H196.783V57.691H190.866V54.9511C190.271 55.8644 189.477 56.5792 188.484 57.1351C187.451 57.691 186.26 57.969 184.91 57.969C183.361 57.969 181.932 57.5719 180.622 56.738C179.351 55.9041 178.318 54.7526 177.564 53.2436C176.81 51.7347 176.452 49.9875 176.452 48.0021C176.452 46.0166 176.77 44.3092 177.524 42.8002ZM189.596 44.5474C188.762 43.7135 187.769 43.2767 186.618 43.2767C185.466 43.2767 184.434 43.7135 183.639 44.5474C182.806 45.3813 182.408 46.5329 182.408 48.0021C182.408 49.4713 182.806 50.6626 183.639 51.4965C184.473 52.3303 185.466 52.8068 186.618 52.8068C187.769 52.8068 188.802 52.37 189.596 51.5362C190.43 50.7023 190.827 49.511 190.827 48.0418C190.827 46.5726 190.43 45.421 189.596 44.5474Z" fill="black"></path></svg>